<svg xmlns="http://www.w3.org/2000/svg" width="19.44" height="19.44" viewBox="0 0 19.44 19.44"><defs><style>.a{fill:#f4f4f4;}</style></defs><g transform="translate(-2.28 -2.28)"><path class="a" d="M6.8,3.45A10.373,10.373,0,0,1,9.63,2.28a2.5,2.5,0,0,0,4.74,0,10.182,10.182,0,0,1,2.82,1.17,2.5,2.5,0,0,0,3.36,3.36,10.057,10.057,0,0,1,1.17,2.82,2.5,2.5,0,0,0,0,4.74,10.182,10.182,0,0,1-1.17,2.82,2.5,2.5,0,0,0-3.36,3.36,10.057,10.057,0,0,1-2.82,1.17,2.5,2.5,0,0,0-4.74,0,10.182,10.182,0,0,1-2.82-1.17,2.5,2.5,0,0,0-3.36-3.36,9.94,9.94,0,0,1-1.17-2.82,2.5,2.5,0,0,0,0-4.74A10.182,10.182,0,0,1,3.45,6.81,2.5,2.5,0,0,0,6.81,3.45ZM12,16a4,4,0,1,0-4-4A4,4,0,0,0,12,16Z"/><circle class="a" cx="2" cy="2" r="2" transform="translate(10 10)"/></g></svg>