<svg xmlns="http://www.w3.org/2000/svg" width="20.01" height="20.018" viewBox="0 0 20.01 20.018"><defs><style>.a{fill:#f4f4f4;}</style></defs><g transform="translate(-2 -1.993)"><path class="a" d="M11.006,4h3a1,1,0,0,1,1,1V8a1,1,0,1,1-2,0V6h-2V18.011h2v-2a1,1,0,1,1,2,0v3a1,1,0,0,1-1,1h-3v1a1,1,0,0,1-1.271.961l-6.985-2A1,1,0,0,1,2,19.012V5a1,1,0,0,1,.751-.971l6.985-2A1,1,0,0,1,11.006,3Z"/><path class="a" d="M18.594,11l-1.3-1.3a1,1,0,1,1,1.421-1.4l3,3a1,1,0,0,1,0,1.4l-3,3a1,1,0,1,1-1.421-1.4l1.3-1.3H14a1,1,0,1,1,0-2Z" transform="translate(0.008 0.004)"/></g></svg>