<svg xmlns="http://www.w3.org/2000/svg" width="20" height="18.412" viewBox="0 0 20 18.412"><defs><style>.a,.b{fill:#3b3f42;}.b{stroke:#3b3f42;}</style></defs><g transform="translate(-19 -451.574)"><g transform="translate(17 447.986)"><rect class="a" width="20" height="2" rx="1" transform="translate(2 20)"/></g><path class="b" d="M.287-7.939H12.166l.113,3.573h-.5a4.289,4.289,0,0,0-.939-2.192,3.858,3.858,0,0,0-2.4-.508H7.269V3.693q0,1.222.38,1.514a3.492,3.492,0,0,0,1.663.385v.38H3.183v-.38a2.9,2.9,0,0,0,1.663-.441,2.772,2.772,0,0,0,.329-1.7V-7.067H4a4.013,4.013,0,0,0-2.377.5,3.718,3.718,0,0,0-.95,2.2H.164Z" transform="translate(22.399 460.014)"/></g></svg>