<svg xmlns="http://www.w3.org/2000/svg" width="18" height="18" viewBox="0 0 18 18"><defs><style>.a{fill:#f4f4f4;}</style></defs><g transform="translate(-3 -3)"><path class="a" d="M8,5H5V15H7a2,2,0,0,1,2,2,2.006,2.006,0,0,0,2,2h2a2,2,0,0,0,2-2,2.006,2.006,0,0,1,2-2h2V5H16a1,1,0,0,1,0-2h3a2,2,0,0,1,2,2V19a2,2,0,0,1-2,2H5a2,2,0,0,1-2-2V5A2.006,2.006,0,0,1,5,3H8A1,1,0,0,1,8,5Z"/><path class="a" d="M11,10.59V4a1,1,0,0,1,2,0v6.59l1.3-1.3a1,1,0,0,1,1.4,1.42l-3,3a1,1,0,0,1-1.4,0l-3-3A1,1,0,0,1,9.7,9.29Z"/></g></svg>