<svg xmlns="http://www.w3.org/2000/svg" width="19.015" height="19.015" viewBox="0 0 19.015 19.015"><defs><style>.a{fill:#3b3f42;}.b{fill:#eaeaea;}</style></defs><g transform="translate(-260 -192)"><path class="a" d="M5.113,3H19.9a2.113,2.113,0,0,1,2.113,2.113V19.9A2.113,2.113,0,0,1,19.9,22.015H5.113A2.113,2.113,0,0,1,3,19.9V5.113A2.119,2.119,0,0,1,5.113,3ZM14.62,9.338a2.113,2.113,0,1,0-2.113-2.113A2.113,2.113,0,0,0,14.62,9.338Z" transform="translate(257 189)"/><path class="b" d="M15.881,12.429a1.056,1.056,0,0,1,1.479,0l2.113,2.113a1.056,1.056,0,0,1,.317.739V18.45a1.056,1.056,0,0,1-1.056,1.056H6.056A1.056,1.056,0,0,1,5,18.45V15.281a1.056,1.056,0,0,1,.317-.739l4.226-4.226a1.056,1.056,0,0,1,1.479,0l3.486,3.475,1.373-1.373Z" transform="translate(257.113 189.395)"/></g></svg>