<svg id="Layer_1" data-name="Layer 1" xmlns="http://www.w3.org/2000/svg" viewBox="0 0 216.83 158.23"><defs><style>.cls-1{fill:#fbb03b;}.cls-2{fill:#0071bc;}.cls-3{fill:#fcba54;}</style></defs><title>hellosummer</title><path class="cls-1" d="M115.27,126.29a37.2,37.2,0,0,1-.72,10c-.3,1.32.24,2.7-.12,4.44a44.19,44.19,0,0,0-.6,6.18,24.77,24.77,0,0,1-.06,3,8.83,8.83,0,0,0,.06,1.81,19.88,19.88,0,0,0,.54,3.65c.18,0,.06,0,.18-.12,1-1.14,1.08-3.65,1.8-5.09,1.14-2.28,2.16-4.86,3.36-7.08,1.08-1.92.12-3.36,3.3-3.12l.9,1.5c.42,1,.48,2,.84,2.94a15.7,15.7,0,0,1,.78,3c.06.48.9,5,1.2,5.76a4.33,4.33,0,0,1,.24.83c.18.54.42,1.38.48,1.5.24.54,0,1,.24,1.5.54,1.33,2.94,4.75,1.68,6.42-.54.37-1.5.37-2,.66a5.41,5.41,0,0,0-.54.6c-1,.66-1.74.24-2.82,0-.12-.89-.72-1-1.08-1.56a3,3,0,0,1-.54-1.25c-.06-.07-.12-.61-.18-.79-.12-.54-.48-2.63-.72-3.41s-.48-2.41-.6-3.06.12-1.69,0-2.23c.06-.89.06-1.73.12-2.63a23.65,23.65,0,0,0,.36-5.16l-.48-2.82h-.18a35.15,35.15,0,0,1-1.56,4.26,11.73,11.73,0,0,1-.6,2.09l-.6,1.75c-.24.71-.6,2.28-.78,2.82a10.4,10.4,0,0,0-.12,4.49A24,24,0,0,1,117,160a1,1,0,0,1-.48.72,10.82,10.82,0,0,1-1.74.72c-.36.18-1.2.6-1.56.73a3.57,3.57,0,0,1-3.42-1,18.51,18.51,0,0,1-1.86-2.93c-.18-.42-.6-2.1-.66-2.34l-.42-2.29a21,21,0,0,1,.12-4.25l.54-3.36c.18-.66.24-1.32.42-2,.6-1.44,1-4.44,1.5-5.58a5.32,5.32,0,0,0,1.32-2.58l1.14-3.48a33.44,33.44,0,0,0,1.5-4.2c.18-.72.54-2.1,1.32-2.16A1,1,0,0,0,115.27,126.29Z" transform="translate(-104.6 -48.6)"/><path class="cls-1" d="M140.83,139a9.69,9.69,0,0,1-1,4.92c-.42,1-2.1,2-2.22,3.11.48.49.3,1,.24,1.5.78.42.36.31.72,1,.18.35.66.66.9,1,.42.61.66,1.26,1.08,1.92a9.68,9.68,0,0,0,1.8,1.69,10.55,10.55,0,0,0,3.54-.43c.72-.23,1-.42,1.86-.77a7.88,7.88,0,0,1,1-.54,12.7,12.7,0,0,0,1.26-.66c.6-.37,1.5-.91,1.86-1.21A36.25,36.25,0,0,0,155,148c.43-.23.91-.23,1.27-.47.42-.42.77-1.14,1.31-1.38.07.06.07.18.07.3-.42.36-.42.54-.67,1.08-.06.24-.48.24-.65.36a.87.87,0,0,1-.12.42c-.3.3-.78.23-1,.54a76.79,76.79,0,0,1-6.36,5.15c-.84.49-1.74.54-2.64,1-.36.12-.72.54-1.08.66-1.2.6-5.1,1-6.72.3a8.71,8.71,0,0,1-3.06-2.75,21.41,21.41,0,0,1-1.8-2.82,31.2,31.2,0,0,1-1-4.08,12.44,12.44,0,0,1,.24-4.56,6.86,6.86,0,0,0,.3-1.44c-.06-.12-.24,0-.3-.36.36-.3.3-.72.48-1.2a14.57,14.57,0,0,1,1.44-1.92c.6-.6,1.86-.36,2.52-.84A3.41,3.41,0,0,1,140.83,139Zm-4.74,2a13.91,13.91,0,0,0,.42,2.22c.06.3.18.72.48,1.8h.3c.36-.78,1.2-1.32,1.44-2.28a2.07,2.07,0,0,0-.18-1.14,6.82,6.82,0,0,1,0-2.7c-.18-.06-.12,0-.24-.12A4.18,4.18,0,0,0,136.09,141Z" transform="translate(-104.6 -48.6)"/><path class="cls-1" d="M166.69,123.35c.12.18.54.3.66.54.6,1.08.06,3.48-.25,4.62-.06.24,0,.6-.11,1-.24,1-.3,2.22-.66,3.24a28.49,28.49,0,0,1-1.38,3.78,9,9,0,0,0-1.08,1.8c-.42,1.44.3,4.44.66,5.64v1.62a1.05,1.05,0,0,1,.3.24,1.75,1.75,0,0,1-.12.54l.66,2,.24,1.49c.36,1.08.9,2.35,1.26,3.37a7.76,7.76,0,0,0,.48,1.5,10.55,10.55,0,0,0,1.92,1.85c4,1.44,5-1.14,6.11-2.22.06-.42.06-.84.12-1.31-.35-.19-.35-1.08-.42-1.62-.6-.61-.18-.66-.36-1.14a1.05,1.05,0,0,0-.3-.24c-.06-.3-.06-.66-.12-1-.36-1.32-.65-2.82-1-4-.05-.65-.05-1.25-.11-1.91a8.75,8.75,0,0,1-.31-1v-3.18c-.77-4.26.9-13,4.2-15,.48-.3,2.88-.66,3.24.3,1.08,4.68.72,10,.84,15.18a16.16,16.16,0,0,1-.42,3.42c-.12.48.18.9,0,1.5a3.47,3.47,0,0,0-.3,2,25,25,0,0,0,1.5,3.12,18,18,0,0,0,1.32,3.12c.06.18.48.23.6.48.72,1,1,2.45,1.86,3.29.36.37.84.72,1.2,1.08s.42,1.08.84,1.45c.84.59,2.22,1,2.28,2.34-.84.54-1.68.59-2.46,1.19a5.27,5.27,0,0,1-3.42,1.32,6.61,6.61,0,0,1-3.72-1.2c-.6-.3-1-.89-1.5-1.31-.24-.19-.72-.79-.9-1a13.07,13.07,0,0,1-1.91-3.91c-.43.3-.55.72-.91,1a15.46,15.46,0,0,1-5,3,14.54,14.54,0,0,1-5.16.18l-.36-.42c-1.14-.72-2.46-1.08-3.24-2.16a14.17,14.17,0,0,1-.72-1.31v-.42c-.84-1.69-1.14-5.64-1.44-5.95a1.8,1.8,0,0,1-.12-.77c.12,0,.06-1,0-1.15-.3-1.07.06-2.69,0-3.59H159c-.54.72-.72,1.2-1.14,1.5a12.46,12.46,0,0,0-1.26,1.08c-.36.18-.36.05-.36-.06l1.74-1.8a7.75,7.75,0,0,0,1.32-1.92c.36-.78.42-4.62.36-5.82a42.87,42.87,0,0,1,.78-4.62,31.23,31.23,0,0,1,1-3.72,25.46,25.46,0,0,1,1.08-3,15.15,15.15,0,0,1,1.26-1.5c.24-.3.36-.78.66-1a8.24,8.24,0,0,0,1.2-.78Zm-.36,1.38c-2.94,3.42-2.58,7.62-2.58,12.54l.12-.06a7.71,7.71,0,0,0,1.2-2.76c.72-2,2.76-7.14,1.62-9.72Zm10.91,4.32v1.8c-.48,2.28.3,6,1,8.16a7.35,7.35,0,0,0,.12,1.14,28.94,28.94,0,0,1,.6,3.42h.36c0-1.5.66-3.06.66-5.22a11.58,11.58,0,0,1,0-2,21.65,21.65,0,0,0,.3-5.88c-.3-1.62.18-2.82-.3-4.32-.3,0-.6-.24-.78-.18C178.08,126,177.48,128.09,177.24,129.05Z" transform="translate(-104.6 -48.6)"/><path class="cls-1" d="M204.72,142.61h-.3c-1-.84-2.4-.24-3.42.12-.48.18-.84.12-1.32.3s-1,.78-1.5,1h-.54a10.7,10.7,0,0,0-1.56,1.32c-.42.24-1,.42-1.32.6v.18c.36.3.18.66.9.72.18-.36.12-.36.6-.42.48.66.66.24,1.38.54.48.42.9.84,1.32,1.26v1.14c.66,1.07-.3,3.3-.48,4a6.36,6.36,0,0,0,.3,2.21c.66,2,1.2,3.9,3.24,4.56a4.47,4.47,0,0,0,3.12-1c.42-.35.48-1,.72-1.55.42-1.21.72-2.64,1.08-4.09.06-.71.06-1.43.12-2.21a11,11,0,0,0,.18-4,14.41,14.41,0,0,1-.3-1.92h.12v.24c.48.36.48,1.2.78,1.8.12.11.3.18.42.3.18.35-.24.42,0,.72.06.12.24,0,.42,0a5.14,5.14,0,0,0,.48,1v2.76c0,1.62.24,2.7-.18,4.08-.06.71-.06,1.38-.12,2l-.42.42c-.3.42-.24,1.08-.6,1.5-.12.11-.36,0-.48.17a13,13,0,0,1-3.54,2.17,8.43,8.43,0,0,0-1.32-.13,8.36,8.36,0,0,1-4.86-.18,10.41,10.41,0,0,1-5.4-6.18,18.24,18.24,0,0,1-.3-2,9,9,0,0,1-.24-3.19,8.44,8.44,0,0,1,.54-2.21c.06-.12.36-.36.36-.54.18-.42-.18-.54,0-1,.12-.25.6-.42.72-.67A17.47,17.47,0,0,1,199.2,142c.54-.3,1.2-.18,1.68-.54A5.55,5.55,0,0,1,204.72,142.61Z" transform="translate(-104.6 -48.6)"/><path class="cls-2" d="M110.6,175.15a3.35,3.35,0,0,1-.06,1.32,6.7,6.7,0,0,0-1.08.6c-.18-.06-.12-.06-.18-.12s-.06-.06-.12-.18a1.85,1.85,0,0,0,.42-.84,1.08,1.08,0,0,0-.42-.3,1.09,1.09,0,0,0-.66-.12c-.54.54-1.26.72-1.56,1.44-1.32,2.94,1.08,5,2.1,6.66.42.72.9,2.64,1.86,2.7.78-1.44,2.46-2.22,3.66-3.3.48-.54.84-1.26,1.32-1.86.24-.3.78-.48,1-.78,1.26-1.2,1.38-1.74,3.24-2.52.3-.18-.6.36-.12.3-2.22,1.62-1.44,1.56-2.7,2.58-.36.3-1,1.14-1.38,1.5-2.16,2.1-2.46,3.06-4.74,5.1.06,1.38,1,2.28,1.14,3.54.18.54.06.42.18.78-.24.36-.06.9-.24,1.32-.3.72-1,2.7-2.16,2.94-.36-.18-1.62-.12-2.16-.42-.84-.48-1.14-1.26-1.74-1.92a6,6,0,0,1,.18-2.1c.18-.48.72-1,.54-1.8a21.93,21.93,0,0,0-1.32-3.84c-.36-1-.18-1.8-.48-2.82s-.78-2.16-.42-3.42v-1.44a7.62,7.62,0,0,1,2.88-3.9C109.4,174.07,109.64,174.19,110.6,175.15Z" transform="translate(-104.6 -48.6)"/><path class="cls-2" d="M127.76,178.33c.12.12.18.24.24.3a9.2,9.2,0,0,1,.54,2.28c-.12.42.06.54.12.72.12.48-.12.66-.24,1.08-.06.06,0,.06,0,.06a.36.36,0,0,0,.24-.06c-.06.36-.12.66-.12.78a17.18,17.18,0,0,1,.42,1.68c.12.36.48.66.6,1.08-.12.12-.12.3-.24.48.12.12.42.18.48.3s0,.3.06.42.12.06.24.12a5,5,0,0,1,.54,1c.18.18.66.12.9.24s.9.78,1.14.42c1.38-.54,1.8-3.06,2.34-4.68a40.44,40.44,0,0,1,2.88-6.84c.24-.36.54-.72.84-.72.12.24.36.18.48.36a2.24,2.24,0,0,1,.3,1.44,6.92,6.92,0,0,1,.18,1.56c0,1.62.06,1,.06,2.82a14,14,0,0,0,.42,2.46.38.38,0,0,1,0,.36c.06.54.66,1.92,1.68,1.74a8.51,8.51,0,0,0,2.7-1.62c.54-.42,1.26-1.26,1.86-1.74l.66-.54,1.8-2c.54-.42,1.62-1.44,1.92-1.74s1-1.44,1.56-1.68l.54-.24c0,.12.12.18,0,.36a9,9,0,0,1-1,.84c-.3.36-2,1.92-2.4,2.34l-.6.6-1.44,1.62a21.64,21.64,0,0,1-2.46,2.16c-1.14,1-2.1,2.52-3.6,3.06a1.79,1.79,0,0,1-.78.06c-1.68-.78-1.44-1.56-1.74-3.36-.06-.78-.36-1.5-.48-2.22a19.24,19.24,0,0,1-.6-3.12c-.24.78-.3,1.44-.54,2.22l-.6,1.86c.06.3.18.24.24.6-.12.18-.42.54-.42.78v.6a2.35,2.35,0,0,0-.24.54c-.36.84-.3,2.1-.72,3a7.49,7.49,0,0,1-.54.72l-.18.54c-.18.3-.6.48-.84.78a3.73,3.73,0,0,0-.18.6c-.18.18-.42.06-.6.24a.88.88,0,0,1-.3.36c-.06.18-1.14.42-1.26.42-.36.12-.6,0-.9.06l-.72.24a.45.45,0,0,0-.12.24c-.18.06-.84-.36-.9-.42a1.85,1.85,0,0,1-.54.06c0-.06-.06-.12-.12-.18-.36-.12-.42.18-.66.12l-.18-.18-.6-.06a5.29,5.29,0,0,1-2.22-1.92c-.18-.24-.54-.3-.6-.66a8.31,8.31,0,0,1-.18-1.8c-.06.06-.06.12-.24.12a1.11,1.11,0,0,1-.06-.9,4.24,4.24,0,0,0-.3-1.62,24,24,0,0,1-.42-4.32c0-.66,0-1-.18-1.14l-.36-.6v-.36a3.16,3.16,0,0,0-.3-2.88c-.78-.42-2.87,2-3.41,1.86,0,0-1.09.48-.61,0,1.26-1.5,3.36-3.48,5.16-4C125.9,174.55,127,176.59,127.76,178.33Z" transform="translate(-104.6 -48.6)"/><path class="cls-2" d="M161.72,173.41a14.9,14.9,0,0,1,2.82,1.32l.54.36a3.2,3.2,0,0,1,1.32,1.68,6.34,6.34,0,0,1,.54.78c0,.18-.06.18-.06.3s.12.12.36.18a7.44,7.44,0,0,0,1.08,2l.12-.12c1.86-1.92,2.58-7,6.24-6.48.06.72.78.9,1,1.56a1.66,1.66,0,0,0-.06.54c.12.48.36,1.08.48,1.56.06.18,0,.42.06.66s.36.78.3,1c-.06.78-.3.6,0,1.38s-.24,1.5.54,1.74c1-2.4,1.74-5,3.3-7a9.93,9.93,0,0,1,1.8-1.32c2.1.06,2.46,2.28,2.88,4a37,37,0,0,0,1.74,6.42c.42.84.66,1.86,1.92,2.16l1.08,1.44c-.12.6-.3,1.08-2.28,1.26-.06-.18-.54-.48-.72-1.08a15.09,15.09,0,0,1-.9-1.62,22.82,22.82,0,0,1-2-5.64c-.36-1.32-.78-4.62-1.62-4.62a.65.65,0,0,0-.36-.06,15.06,15.06,0,0,0-1.68,1.74c0,.24-.06.42-.06.66-.24.48-.6,1.2-.84,1.74-.06.3-.06.66-.12,1-.54,1.44-.72,3.66-2.28,3.84-.3-.3-.78-.42-1-.78a13.75,13.75,0,0,1-1.68-3.54c-.18-.54-.42-2.58-.9-2.76a14.89,14.89,0,0,0-2,4.32c-.12.48-.12,1-.24,1.32s-.42.54-.48.72c-.06.36.18.72,0,1.14a5.28,5.28,0,0,0-.48,1.8h-.42c0,.3.24.54.12.78l-.36.18a.45.45,0,0,0,.06.42c-.24.48-.36.12-.6.6l-.3-.12a3,3,0,0,1-.72.78h-.54v.3a3.64,3.64,0,0,1-2.22-.42l-.66-.3.06-.06c0-.24.06-.36-.42-.48a8.85,8.85,0,0,0-1.5-2.64,15.22,15.22,0,0,1-1.2-3.12c-.24-.72-.06-1.44-.36-2.1l-.36-.36c-.36,0,1.2-1.26.42-1.86-.3-.18-.48-.12-.6-.36-.48-.54-.54-1.26-1.26-1.5-.48-.36-1.74,0-2.1.18l-.3-.06c0,.06-.06.06-.06.18a1.86,1.86,0,0,0-1,.42,3.55,3.55,0,0,0-.84.36c-.3.24-.84.3-1.26.6a2.89,2.89,0,0,0-.66.54c-.36.3-1.31.54-1.38.42a10.79,10.79,0,0,1,1.2-1.32,27.09,27.09,0,0,1,4.92-3.9,4.57,4.57,0,0,1,2.88-.9C160.94,173.35,161.24,173.11,161.72,173.41Z" transform="translate(-104.6 -48.6)"/><path class="cls-2" d="M217.46,171.13c.18.24-.18.36,0,.66,1.44,2.46,1.62,5.16,2.46,8.4a10.71,10.71,0,0,0-.12,1.38,16.92,16.92,0,0,1,.3,3.54c.06.48.66,1.08,1.74.42a12.17,12.17,0,0,0,2.52-1.2,28.75,28.75,0,0,0,4.74-3.24c.24-.18.36-.6.6-.9.72-.66,2.4-2.22,3.36-2.46v.12a6.37,6.37,0,0,1-1,1.2c-.3.24-.72.42-.9.72a9.33,9.33,0,0,1-1.8,2.64,37.74,37.74,0,0,1-4,2.88,1.87,1.87,0,0,1-.24.36,11.43,11.43,0,0,1-2.1,1.26,9.87,9.87,0,0,0-1.14.6,5,5,0,0,1-5.76-1.2l-.24-.66c-1.08-1.14-2-3.48-2.76-5.58-.18-.54-.54-2.34-.84-3.54H212v.12c-.84,1.14-.84,2.4-1.38,3.72a30.43,30.43,0,0,1-1.26,2.88l-.54,1c-.24.3-.18.66-.42.9l-.42.18c-.48.72-.78,1.38-1.92,1.44-.54-.48-1.44-.36-1.68-1.08-.3-.54,0-1.32-.12-1.92-.48-2.88-.6-4.8-.84-7.38a10.05,10.05,0,0,0-.36-2.4c-.06,0-.06.06-.12.06-1.38,1.56-1.44,5.52-1.8,8a21,21,0,0,1-.3,3.24c-.3,1-1.08,1.5-1.74,2.22-3.36-.06-4.86-5.16-5.52-8.16-.36-1.68.18-3.9-.18-5.34a2.5,2.5,0,0,1,.36-.12c.24.12.66.12.84.3l.12.3c-.6.72,0,1.86-.24,2.7-.3,1.38.78,5.7,1.32,6.66.24.48.84.84,1.2,1.2a2.53,2.53,0,0,0,1.8,1.26,1.14,1.14,0,0,0,.24-.72,6,6,0,0,0,.6-3.12c.06-1,.24-2.1.36-2.94.18-1.14.48-1.86.72-3,.3-.84,1-1.74,1.2-2.52v-.9a3.68,3.68,0,0,1,1.56-1.74,4.28,4.28,0,0,1,1.8-.18,12.69,12.69,0,0,1,.12,3.42c.3.6.06,2.34.3,3.12a15.11,15.11,0,0,1,.48,3.24c0,.48.6,1.68.72,2.28l.06-.06c.78-.9,1.08-2.52,1.5-3.66s.72-2.52,1.14-3.6c.18-.54-.06-1,0-1.32a10.21,10.21,0,0,1,.54-2.34c.18-.36.72-.42,1-.72a1.85,1.85,0,0,1,.9-1.5c.9-.54,2.82-.66,3.54-1.32C216.2,168.91,217.16,170.53,217.46,171.13Z" transform="translate(-104.6 -48.6)"/><path class="cls-2" d="M236.78,170.59c-.06,0-.12.12-.12.12l-.12-.06c-.36-.36-.36-.3-1-.18a8,8,0,0,0-2.16,1.56c-.3.3-.36.66-.6.9a.53.53,0,0,1-.3.24c-.24.54.12,1.14-.06,1.68a8.72,8.72,0,0,0-.06,2.82c.12.3,0,.06.24-.12,2.1-1.92,3.48-3.06,4.44-5.7h.12c.06.24-.06.42-.12.66-.24.36-.24.78-.48,1.2,0,.12-.18.3-.24.54-.24.12.06.18-.12.48a21.76,21.76,0,0,1-3.66,3.78c.06.24.36,1.56.36,1.8s.48.9.3,1.14a6.54,6.54,0,0,1,.78.66l.9.66a8,8,0,0,0,5.52,1.86,7.63,7.63,0,0,0,3-.78,3,3,0,0,1,.72-.12l.78-.42a28.67,28.67,0,0,0,3-1.92,1,1,0,0,1,.54-.36,24.78,24.78,0,0,0,2.88-2.34l.24-.18a1.19,1.19,0,0,1,.72-.48c.12,0,0,.18,0,.18-.12.42-.42.54-.66.84l-.54.42a5.3,5.3,0,0,0-1,1c-.36.18-.9.78-1.32,1s-1.08.78-1.56,1.14-.66.6-1.14.9c-.18.18-.42,0-.66.18-1.86,1.08-1.86,1.62-2.58,1.44-2.1,1.38-5.82,1.56-9.06.24-3.48-1.44-5.52-7.5-3.3-11.7a11.3,11.3,0,0,1,1.74-2.34c.54-.24.54-.6,1-.72a4.12,4.12,0,0,1,2.88-1.08C236.66,169.81,236.54,170.23,236.78,170.59Zm.24.6c.12.06.06.06.06.18v.18l-.12-.12c-.12-.06-.12-.12-.12-.3C236.84,171.13,237,171.07,237,171.19Z" transform="translate(-104.6 -48.6)"/><path class="cls-2" d="M255.86,169.45a3.07,3.07,0,0,1,.06,1.8c.06.18.06.42.12.66a7.12,7.12,0,0,1-.24,1.44,6.73,6.73,0,0,0-.48,1.56l1.38.12a17.06,17.06,0,0,0,2.28-.3c1.2-.12,3.54.12,4.44.9a4.3,4.3,0,0,1,.66.9,4,4,0,0,1-.06.9l.36.3a3.24,3.24,0,0,0,0,1.08,3.43,3.43,0,0,1,.42.48c0,.6.24,1.14.24,1.74,0,1-.18,1.62.06,2a22.44,22.44,0,0,1-.24,3.24c-.24,2.28-1.2,5.94-1.08,5.82.12.6-.42,1-.24,1.38.06.06.18.12.24.24.12.48-.54,1.08-.42,1.38s.18.12.18.48c-.36.12-1,.36-1.08.78-1.8.12-2-.72-3.42-1-.12-1.92-1.32-2.7-2-4.2-1.08-2.16-.66-7.44,0-9.54l-.06-.36c.24-2.16.36-2.52-.48-4.26a3.3,3.3,0,0,1-1.86-.9,19.1,19.1,0,0,1-3.12,2.82c-.18,0-.18,0-.06-.36.78-.78.54-.36,1-1.08,0-.12.06-.12.12-.18.42-.72,1.08-1.08,1.26-1.92-.06-.18-.6-.84-.66-1a5.25,5.25,0,0,1-.12-1c-.9-2,.24-3.18,1.32-4.2.24-.3.06-.54.48-.78,0-.06.12-.12.42-.06C255.68,168.67,255.86,168.67,255.86,169.45Zm-.72.66c-.18.06-.42.06-.6.12-.18.24-.24.18-.24.48a3.79,3.79,0,0,0,.42,3.24v-.12c.6-1,.48-2.46.54-3.6Z" transform="translate(-104.6 -48.6)"/><path class="cls-3" d="M192.82,135c-.11.19.32.25.38.3C193.23,134.94,192.71,135,192.82,135Z" transform="translate(-104.6 -48.6)"/><path class="cls-3" d="M193.19,131.36l.13.12c-.06-.22-.12-.43-.17-.65C193.16,131,193.17,131.18,193.19,131.36Z" transform="translate(-104.6 -48.6)"/><path class="cls-3" d="M194.66,128.34c-.78,0-.48,1.13-.94,1.56l-.19,0,.4.49C194.14,129.71,194.24,128.7,194.66,128.34Z" transform="translate(-104.6 -48.6)"/><path class="cls-3" d="M196.87,127.57c-.3,0,0-.44-.28.31l.09,0C196.72,127.79,196.77,127.7,196.87,127.57Z" transform="translate(-104.6 -48.6)"/><path class="cls-3" d="M196.68,127.85c-.15.3.32-.08,0,0Z" transform="translate(-104.6 -48.6)"/><path class="cls-3" d="M197.36,126.42c0,.17,0,.33,0,.51.18,0,.44-.31.46-.12C197.92,126.36,197.73,126.34,197.36,126.42Z" transform="translate(-104.6 -48.6)"/><path class="cls-3" d="M197.16,125.78l0,.25C197.2,126,197.25,126,197.16,125.78Z" transform="translate(-104.6 -48.6)"/><path class="cls-3" d="M197,126.57l.09-.54c-.13,0-.33-.12-.06.24C196.9,126.12,197,126.31,197,126.57Z" transform="translate(-104.6 -48.6)"/><path class="cls-3" d="M196.8,126.75c-.27.14-.52.38-.5-.15C195.94,127.41,196.44,127.55,196.8,126.75Z" transform="translate(-104.6 -48.6)"/><path class="cls-3" d="M194.09,127.84l-.35.22.07.38C193.77,128.25,194.3,127.93,194.09,127.84Z" transform="translate(-104.6 -48.6)"/><path class="cls-3" d="M199.25,124.33c-.11-.12-.42-.12-.59-.21l-.06.37C198.79,124.42,199.05,124.21,199.25,124.33Z" transform="translate(-104.6 -48.6)"/><path class="cls-3" d="M198.66,124.12l.08-.56C198.45,123.91,198.5,124.05,198.66,124.12Z" transform="translate(-104.6 -48.6)"/><polygon class="cls-3" points="91.94 76.67 91.95 77.67 92.03 76.53 91.94 76.67"/><polygon class="cls-3" points="95.82 74.25 95.92 74.69 95.82 73.96 95.82 74.25"/><path class="cls-3" d="M201.17,121.85c.08.35.56.12.55.4a2,2,0,0,0,.19-1A1,1,0,0,1,201.17,121.85Z" transform="translate(-104.6 -48.6)"/><path class="cls-3" d="M202,120.69a2.16,2.16,0,0,0-.05.54A1.31,1.31,0,0,0,202,120.69Z" transform="translate(-104.6 -48.6)"/><path class="cls-3" d="M199.32,122.93a.73.73,0,0,0,.59,0l-.46-.11Z" transform="translate(-104.6 -48.6)"/><path class="cls-3" d="M199.44,122.77h0l.29-.32Z" transform="translate(-104.6 -48.6)"/><path class="cls-3" d="M199.29,123l0,0S199.26,122.92,199.29,123Z" transform="translate(-104.6 -48.6)"/><path class="cls-3" d="M197.61,124.38c0-.38.14-1-.52-.76C197.21,124,197.58,123.81,197.61,124.38Z" transform="translate(-104.6 -48.6)"/><path class="cls-3" d="M198.71,122.83l-.4.37c.1.06.29.08.29.27C198.64,123.26,198.67,123,198.71,122.83Z" transform="translate(-104.6 -48.6)"/><polygon class="cls-3" points="94.18 73.94 94.12 74.23 94.27 74.09 94.18 73.94"/><path class="cls-3" d="M201.06,121.09a1.41,1.41,0,0,1,.34-.73,3.51,3.51,0,0,0-.71.61C200.76,121.09,200.86,121.35,201.06,121.09Z" transform="translate(-104.6 -48.6)"/><path class="cls-3" d="M200.23,121.87v-.06C200.19,121.81,200.17,121.83,200.23,121.87Z" transform="translate(-104.6 -48.6)"/><path class="cls-3" d="M203.38,118.37l-.08,0,0,.06Z" transform="translate(-104.6 -48.6)"/><path class="cls-3" d="M200.6,121a.43.43,0,0,0-.22.47,2.48,2.48,0,0,1,.31-.46S200.63,120.89,200.6,121Z" transform="translate(-104.6 -48.6)"/><path class="cls-3" d="M202.36,120a3.74,3.74,0,0,0-.45.12C202.09,120.12,202.41,120.1,202.36,120Z" transform="translate(-104.6 -48.6)"/><path class="cls-3" d="M200.38,121.83v0C200.49,121.87,200.45,121.85,200.38,121.83Z" transform="translate(-104.6 -48.6)"/><path class="cls-3" d="M200.38,121.83a1.34,1.34,0,0,0,0-.4,1.61,1.61,0,0,0-.14.38Z" transform="translate(-104.6 -48.6)"/><path class="cls-3" d="M202.16,115.76a.76.76,0,0,1-.67,1.09c-.2.59,1,1.27,1.81,1.5-.11-.14-.22-.25,0-.79-.28,0-1.22.45-1.14-.12.39-.65.53-.31.93-.39-.56-.16.2-1.16-.39-1.59-.11.2-.22.41-.32.62C202.31,116,202.36,115.71,202.16,115.76Z" transform="translate(-104.6 -48.6)"/><path class="cls-3" d="M202.54,119l-.12.19a1.7,1.7,0,0,1,.91-.15c.13-.38.08-.54,0-.65-.27.23-.56.45-.81.7Z" transform="translate(-104.6 -48.6)"/><path class="cls-3" d="M201.74,119.91c-.19-.42,0-.93-.52-1-.43.5-.05.58-.19,1,.65-.83,0,.37.67,0a2.65,2.65,0,0,1-.3.48,3.44,3.44,0,0,1,.51-.25h0c-.07,0-.11,0-.05,0a0,0,0,0,1,0,0,1.19,1.19,0,0,1-.09-.15c.28-.15.12,0,.09.15a.1.1,0,0,0,0,0h0l.55-.9A2.8,2.8,0,0,0,201.74,119.91Z" transform="translate(-104.6 -48.6)"/><path class="cls-3" d="M196.68,122.62a.1.1,0,0,1,.1,0C196.78,122.56,196.77,122.52,196.68,122.62Z" transform="translate(-104.6 -48.6)"/><path class="cls-3" d="M197.15,122.41c0,.1.1.26-.08.43s-.17-.12-.29-.19c0,.19-.06.61.39.35v-.1c.38-.26,1.13-.38,1.14-.28A3,3,0,0,0,197.15,122.41Z" transform="translate(-104.6 -48.6)"/><path class="cls-3" d="M199.36,121l.43-.8-.59.1.19.13C199,120.72,199.27,120.82,199.36,121Z" transform="translate(-104.6 -48.6)"/><polygon class="cls-3" points="99 69.86 99.23 70.27 99.15 69.46 99 69.86"/><polygon class="cls-3" points="99.78 69.06 100.01 69.38 100.08 69.02 99.78 69.06"/><path class="cls-3" d="M265.15,116.17l.29.09A1.47,1.47,0,0,0,265.15,116.17Z" transform="translate(-104.6 -48.6)"/><path class="cls-3" d="M263.56,114.91l-.16.13C263.54,115,263.62,115,263.56,114.91Z" transform="translate(-104.6 -48.6)"/><path class="cls-3" d="M229.19,107.68c.39.36.8.92.75.48l-.13-.43A.76.76,0,0,1,229.19,107.68Z" transform="translate(-104.6 -48.6)"/><path class="cls-3" d="M248.46,108.86l-.05-.17-.4.28Z" transform="translate(-104.6 -48.6)"/><path class="cls-3" d="M249.44,107.33l.37.47A1.7,1.7,0,0,0,249.44,107.33Z" transform="translate(-104.6 -48.6)"/><path class="cls-3" d="M273.23,124.1l.56.05C273.49,123.7,273.44,124,273.23,124.1Z" transform="translate(-104.6 -48.6)"/><path class="cls-3" d="M213.76,111.28a2.21,2.21,0,0,0,.83-.08C214.14,111.12,213.7,110.91,213.76,111.28Z" transform="translate(-104.6 -48.6)"/><path class="cls-3" d="M261.7,119.32c.17,0,.28,0,.34-.08C261.86,119.2,261.74,119.21,261.7,119.32Z" transform="translate(-104.6 -48.6)"/><path class="cls-3" d="M215.42,110.84l-.19,0a1.86,1.86,0,0,1-.64.39A.65.65,0,0,0,215.42,110.84Z" transform="translate(-104.6 -48.6)"/><path class="cls-3" d="M271.35,163.12l-.09,0S271.33,163.17,271.35,163.12Z" transform="translate(-104.6 -48.6)"/><path class="cls-3" d="M260.53,168.35a2.25,2.25,0,0,1,.31-.31C260.76,168.07,260.67,168.15,260.53,168.35Z" transform="translate(-104.6 -48.6)"/><path class="cls-3" d="M208,115.05c-.18.15,0,.06,0,0Z" transform="translate(-104.6 -48.6)"/><path class="cls-3" d="M206,114.34a.29.29,0,0,0,0-.23A.43.43,0,0,1,206,114.34Z" transform="translate(-104.6 -48.6)"/><path class="cls-3" d="M216.72,107.45h0C216.64,107.39,216.66,107.4,216.72,107.45Z" transform="translate(-104.6 -48.6)"/><path class="cls-3" d="M207.58,115.09a1.3,1.3,0,0,0,.33-.07A1.36,1.36,0,0,0,207.58,115.09Z" transform="translate(-104.6 -48.6)"/><path class="cls-3" d="M207.74,115.23l-.19.08C207.57,115.39,207.62,115.41,207.74,115.23Z" transform="translate(-104.6 -48.6)"/><path class="cls-3" d="M208.24,114.84a1.19,1.19,0,0,1-.33.18c.05,0,.08,0,.08,0Z" transform="translate(-104.6 -48.6)"/><path class="cls-3" d="M277,142.53l0,.06C277.16,142.85,277.13,142.74,277,142.53Z" transform="translate(-104.6 -48.6)"/><path class="cls-3" d="M235.83,103.43h0l0,0Z" transform="translate(-104.6 -48.6)"/><path class="cls-3" d="M236.81,103.21c-.48.49-.69.4-1,.25l.16,1.28Z" transform="translate(-104.6 -48.6)"/><path class="cls-3" d="M268.89,119.35l-.21-.75c1,.11,1.31.73,1.25-.13-.52.44-1,0-1.52-.44s-1-.85-1.51-.37l-.15-.51c.09.1.16,0,.25.14-.24-1.05-1.12.32-1.84-.51-.23-.32-.31-.64,0-.61l-.87-.26c-.18-.17,0-.32.19-.15l-1.1-.69,0,0a6.36,6.36,0,0,1-1,.09c-.15-.35.21,0,.24-.21l-.76-.14c0-.45.64-.41,1-.07.25-1.5-.67-.07-1.41-1.53l.66.24c.07-.89-.53-1-.91-1.77,0,.31.62,1.85-.22,1.71a.84.84,0,0,0-.83-.41c.26-.4-.15-.52-.59-.77l.37-.52c-.56-.14-.7.16-1.12.24-.49-.37-.34-.86-.25-1.29-.79-.59.17,1-.88.54a3.17,3.17,0,0,0-2.22-.82c-.38-.46.28-.29.19-.55L255,110c-.1-.07,0-.19.07-.25-.47,0-.34.54-1,.38-.48.54-.71-1.55-1.82-1.21-.1-.25.27-.3.32-.55a5.55,5.55,0,0,0-2.17.15l-.54-.71c.33.68-.58.89-1.35,1.06.1.29.17.55.23.68l-1.05-.08c-.07-.15.11-.31.37-.49a1,1,0,0,0-.23.07c-.24-.36.07-.63.45-.85a4.24,4.24,0,0,1,.18.5,2,2,0,0,0,.88-.91.77.77,0,0,1-.38,0c.11-.07.18-.14.18-.21s-.16,0-.38.09l.06-.75-.16.24-1.09-.93c-1.18.3-2.33,1-3.84.82.52-.38.34-.79.55-1.37.2.75,1.23.11,1.94.51-.37-.21-.18-.45,0-.51-.52,0-1,0-1.55.09.19-.47-.17-.46-.47-.77,0,1-1.22.31-1.87.48.06-.34.28-.63,1-.37-.56-.93-1.29.87-1.86.06.17,0,.24.11.35,0-.46.17-1.36-.27-1.07-.5l.17,0a8.08,8.08,0,0,0-2.18-.39c-.77,0-1.43.13-1.57.54a7.1,7.1,0,0,1,.39-1.15c-.82.82-1.61,1.73-2.35,2.59.26-.7-.26-2.51.74-2.82a1.37,1.37,0,0,0-1.21-.09c.19.11.37,1.09.12,1.13-.63-.85-.44-.46-1.27-1.21.27.17-.11,1.3-.54,1.23.08-.16,0-1.13.19-1.24-.39.35-.77.72-1.14,1.09.27-.2.07-.95-.17-1.28.11.23-1,0-1.26.07l.47.27c-1.26-.17-1.21,1.61-2.4,1.58.13-.24.3-1.45-.34-1.56-.27.61-1.08,2.84-2,3.4l-.23-.3-.74.47a13.82,13.82,0,0,1,2.35-3.66c-.49-.22-.16-.38-.87-.29-.28-.29.35-.5.56-.53-.56,0-1.12-.06-1.69,0,.15.65-1.18.82-1,1.37l1.69-.91a2.21,2.21,0,0,1-1.94,2c-.32-.22,0-1.22,0-1.43-.12.24-1,.62-1.15.47l.43-.44c-.69-.13-.89,1-1.77.58-.26,0-1-.68-.93-.28a6.68,6.68,0,0,1,1,3.58,10.28,10.28,0,0,1-1.82-.71c-.57-.47.26-1.56-.22-2a.94.94,0,0,1-.22.56c-.31-.08,0-.58-.6-.34.08.68-1.21.27-.12.63-.52.34-.65,0-1.3.26.33.36-.14,1.62-.61,2,0-.17-.22-.35-.31-.43a26,26,0,0,0-2.86.71c-.15-.11-.73-.08-.64-.44-.1.17-.14.44-.44.6-.86-.27.66-.4-.09-.84.11.37-.6.86-.93,1.31.4.48,1.06-.39,1.42-.8a2.81,2.81,0,0,1-.88,2.76c-.7.58-.59-.32-.68-.14-1.55.67-.53,2-2,2.12-.74-.17-.58-.9-.89-1.16.52-.58,1.15-.29,1.57-.55l-.66.08a1.08,1.08,0,0,1,.79-.63c-.66-.2-2.55,1.35-3.87,1.77-.1.28-.32.66,0,.73l.3-.3c.56.14-.29.94.25.8-.28.56-.48,1.3-1.22,1.58l-.49-.4c.12.13.62,0,.67-.3-.08.41-1.45.07-1.22.92h.69c-.26.57-.33,1.51-1,1.78.62.27.07-.15.89.09-.44-.21-.11-.47.19-.72s.59-.46,0-.63c.89.35.88-.24,1.79-.06-.13-.14-.41-.18.1-.42a1.55,1.55,0,0,1,0-.21h0s0,0,0,0a.83.83,0,0,1-.41-.09c-.05-.53.69-1,.81-1.41.33-.11,0,.27.28.35l.17-.56c.29.35,1.15.16.64.79l.6-.35a1.47,1.47,0,0,0,1.2-.54c.33-.08.47-.84.4-.39l.81-.78.06.1c1-.43,1.67-1.67,3.14-1.4a2.06,2.06,0,0,1,1.2-.61l.24.32c.39-.3,1.43-.11,1.49-.54.4.42.93.29,1.49.08a7.09,7.09,0,0,1,1.53-.54l-.09-.5a5.33,5.33,0,0,0,1.69-.7l-.13-.43c.53-.47,1.6,0,2.54-.15,0,.18-.29.16-.48.09a1.6,1.6,0,0,0,1.77-.12c.56-.29,1.13-.57,1.67-.25a.51.51,0,0,1,.63,0l-.06,0h.1c.12.07.24.16.37.22a1.36,1.36,0,0,0-.31-.23,2.61,2.61,0,0,0,.79-.2l.14.48.07,0c.29.17.23-.23.07-.59a1.45,1.45,0,0,0,.39-.3c.24.76.79-.26,1.11.57.2-.4,1.5-.27,1.71-1.09,0,.11.09.17-.07.16a1,1,0,0,0,1,0l.09.62q.41-.39.81-.75c.41.42.57.66.08,1.08,1.14-.6.89-.2,1.89-.77l-.1.39c.32,0,.92-.4,1.06,0a4.29,4.29,0,0,0,2.18.87,8.15,8.15,0,0,1,2.92,1.2c0-1.22.66.76,1-.07,0,.3.21.53-.15.66,1,0,1.17.89,2,.41,0,.3-.34.3-.31.49.1,0,.37-.11.4.08s-.21.16-.4.22c.9.31,1.32-.43,1.7-1.14.31.55.56.59,1.1.27.06.31.21.67-.39.51.31.17,1.74,1.22,2.05.67,0,.19.42.25.53.23a10.23,10.23,0,0,0,1.42.76l-.14-.19c.62-.54.64.15,1.23.36l0,.06c1,1.17.67.06,1.58,1.3l.17-.45c.63-.83.77,1.14,1.66,1.22l-.11-.39c.57-.06.34,1.84.63,2.19,0,.12-.2,0-.35,0,.64,1.13.46-.45,1.26-.12-.05.37-.63.62-.19,1,.08.38,2,0,2.26,1,0-.31,0-.63.46-.55.56.28.73,1.75,1.66,1.43a.31.31,0,0,1,0,.23c.49.12,1.39.66,1.88.51-.37.77.3,1.08.93,1.37s1.23.56.69,1.09c.36.3.69.63,1,1l-.14.08a1.53,1.53,0,0,0,1.49.72c.05.23-.16.2-.23.24.59,1.21.69,1.25,2,1.7l-.34.38c.42.1.38,1.95,1.44,2.78a.31.31,0,0,1-.26,0c.61.49.65,1.42.76,2.15s.27,1.32,1.22,1.27l.71.76c-.25-1.23.81-.06.93-.64.26.46-.12,1.4-.4.84l.06-.12c-.94,0,.1,1.59-.54,1.72.64,2.35.39,4.77.35,7l.73-.26,0,.8c-.18.2-.58.26-.54-.29-.42.28.34.94.49,1-.36,1.09-.82-.46-.86-.12l0,.45.09-.1c.27.38.59.43.51,1.11-.17.42-.47.18-.51.34-.05,0-.08,0-.05.26l-.16,1,.61-.32c.25.48-.16.93.57.56-.57.27-.76,1.18-1,2.06a5.42,5.42,0,0,1-.54,1.9,2.68,2.68,0,0,1-.24,2c.17-.15.84-.05.53.56-1.19-.68-1,1-2.08,1.07.79-.19-.59,1.76.53,1.46-.34.45-.47-.18-.93.06-.08,1.42-1.61,2.38-2.31,3.8.14.12.51,0,.54.47l-1.2.22c-.1.31.67.82-.17.94.17,0,.43.05.34.26a27.16,27.16,0,0,0-3.2,3.64,7.47,7.47,0,0,1-4,2.8c.55,0,.35.19.1.42.22-.08.28.34.46.49-.48.13-1,.23-1.47.33.22.69-1.12.91-.87,1.5l.29-.34c0,.94,1.64.86,2.16,1.65,0-1.07,2.22-.14,2.29-1.82.32,0,0,.37.29.46-.05-.5.14-.8.74-1.09v.12c1.25-1.3,2.08-1.56,3.65-2.91l-.45-.2a1.46,1.46,0,0,1,.72-.34c-.22-.85-.83.91-1.13,0,1.13.2,2-2.33,3.06-2,.4-.55-.56-.16-.16-.71l.35,0-.22-.36a.83.83,0,0,1,1-.17,1.68,1.68,0,0,0-.17.41c.63-.28.82-1.44,1-1.54l-.52.45c.8-1.69,2.25-3.51,2.45-5.4l-.26,0c.16-1.41.69-.89,1.05-2.36l0,.07a1.74,1.74,0,0,1,.09-1.14c.13.45.7-.51.82.06,0-1.56-.09-.82-.61-2l.41-.11a1.36,1.36,0,0,1-.31-1.21c.16.66.67-.32.91.44,1.16-1.38-.31-2.43,1-2.94-.9-.87-.77,1.24-.93.81-.38.26-.66-.71-.48-1.17s1.42-.64,1.54-1.92c0,.13.05.15,0,.27.32-.45-.28-.95.18-1.51-.6-.36.08-.76-.72-.88.06.39.09.77.13,1.16-.16-.67-1.06-1.29-.62-2.34a1.73,1.73,0,0,1,.48.62c.24-.31-.15-.6.1-.93.78.09.18,1.4.73,2.13.37-.33-.54-1.36.32-1-1.09-.53.16-1.28-.73-2.12l.48,0c-.08-.14-.32-.41-.32-.66l.64.42c-.54-.67.36-1.4,0-2.06.15,1.42-.54.37-.83,1-.79-1.64,1.15-1.12.64-3.07.1.26-.13,1-.41.66a2.9,2.9,0,0,1,.33-1.18c-.35-1.27-.44.29-.83-.2.47-.55-.35-.58-.66-1.07l.47-.12c-.08-1.51-1.06-.13-1-1.48l.79.35c-.11-.21-.23-.42-.36-.62l.57,0a2,2,0,0,1-.68-1.61.7.7,0,0,1-1.1-.39c.11-.52.52.06.12-.77.36.07.79.16.52.7.16,0,.36.08.52.07.13-.57-.35-1.18-.51-1.49a.74.74,0,0,1,0,.38l-1.16-1c.08-.27.28-.18.48-.09-.17-.23-.43-.31-.66-.64.39-.08.77-.3,1.17.16-.3-.34-.66-.66-1-1,.11-.16.1-.82.3-.74-.16-.77-1.54-1.19-1.83-2.13a.62.62,0,0,1-.36-.18c-.44-.78-.54-1.73-1.64-2.22l.15-.92c-.67-.52-.14,1.19-1.24.33-.8-.57.21-.67.12-1.06-.6-.11-1.67-.21-1.91-1.23C268.57,119,268.66,119.2,268.89,119.35Zm-7.91-6c.22,0,.71,0,.66.29C261.15,114,261.17,113.68,261,113.37Zm-13.45-5.91c.19-.1.36.06.51.32A.8.8,0,0,1,247.53,107.46Zm-37.61,5.84a0,0,0,0,0,0,0C210.35,113.22,210.2,113.23,209.92,113.3Zm-.79.25a.14.14,0,0,0,.08.19c0-.13.13-.24.32-.32C209.42,113.35,209.28,113.33,209.13,113.55ZM273.65,145l.14-.15C273.89,145.23,273.78,145.12,273.65,145Z" transform="translate(-104.6 -48.6)"/><path class="cls-3" d="M249.32,107.5a.53.53,0,0,1,0,.28C249.39,107.73,249.43,107.65,249.32,107.5Z" transform="translate(-104.6 -48.6)"/><path class="cls-3" d="M273.13,124.1v0s.07,0,.09,0Z" transform="translate(-104.6 -48.6)"/><path class="cls-3" d="M219.48,104.64a.62.62,0,0,1,.4.15C219.87,104.67,219.76,104.59,219.48,104.64Z" transform="translate(-104.6 -48.6)"/><path class="cls-3" d="M206.18,116.67l.33-.41a.63.63,0,0,1-.46.16C206.13,116.5,206.3,116.57,206.18,116.67Z" transform="translate(-104.6 -48.6)"/><path class="cls-3" d="M200.81,117.5c0,.1-.11.12-.13.22l.18.14C201.08,117.61,201.12,117.31,200.81,117.5Z" transform="translate(-104.6 -48.6)"/><path class="cls-3" d="M204.8,115.73c-.29-.29-.45,0-.69.33l0,0C204.45,116.52,204.62,116.13,204.8,115.73Z" transform="translate(-104.6 -48.6)"/><path class="cls-3" d="M204.06,116.13a1.13,1.13,0,0,1-.26.23C203.92,116.56,203.94,116.31,204.06,116.13Z" transform="translate(-104.6 -48.6)"/><path class="cls-3" d="M208.43,114.33c-.2,0,.21.49,0,.41C208.6,115.27,209,113.57,208.43,114.33Z" transform="translate(-104.6 -48.6)"/><polygon class="cls-3" points="99.12 66.3 99.55 66.59 99.45 66.14 99.12 66.3"/><path class="cls-3" d="M206.3,113.35c-.19.08-.38.15-.57.24.06.07,0,.15,0,.24C206,113.61,206.4,113.46,206.3,113.35Z" transform="translate(-104.6 -48.6)"/><path class="cls-3" d="M205.71,113.83a.82.82,0,0,0-.34.36A2,2,0,0,0,205.71,113.83Z" transform="translate(-104.6 -48.6)"/><polygon class="cls-3" points="99.67 65.65 99.88 65.62 100.24 65.39 99.67 65.65"/><path class="cls-3" d="M211.88,110.08l.52-.42c0-.18-.22-.2-.41,0S211.71,110,211.88,110.08Z" transform="translate(-104.6 -48.6)"/><path class="cls-3" d="M209.45,109.82c.21,0,.28.1.45.19l-.29-.55Z" transform="translate(-104.6 -48.6)"/><path class="cls-3" d="M211.13,108.76c0-.18.67-.89-.09-.46C211.05,108.48,210.5,108.91,211.13,108.76Z" transform="translate(-104.6 -48.6)"/><polygon class="cls-3" points="116.32 57.44 116.15 57.48 116.41 58.47 116.32 57.44"/><path class="cls-3" d="M229.62,102.48c-.84-.22-.17.63-.93.35-.19.24.62.23.43.44C229.6,103,229.87,103.14,229.62,102.48Z" transform="translate(-104.6 -48.6)"/><path class="cls-3" d="M229.12,103.27a2.56,2.56,0,0,0-.25.16A.62.62,0,0,0,229.12,103.27Z" transform="translate(-104.6 -48.6)"/><polygon class="cls-3" points="154.21 120.39 153.7 120.5 154.15 120.59 154.21 120.39"/><path class="cls-3" d="M258.5,170.14l-.46-.46.1.65C258.21,170.24,258.35,170.07,258.5,170.14Z" transform="translate(-104.6 -48.6)"/><path class="cls-3" d="M260.47,111.48l-.12.11c0,.19.08.26.27.42Z" transform="translate(-104.6 -48.6)"/><polygon class="cls-3" points="161.48 67.5 161.39 67.41 161.2 68.01 161.48 67.5"/><path class="cls-3" d="M271.12,119.89c-.15-.21-.46-.35-.62-.56C271,119.67,270.62,120.44,271.12,119.89Z" transform="translate(-104.6 -48.6)"/><path class="cls-3" d="M192.45,117.64c0,.75.38.48.45.59C192.81,117,192.34,117.67,192.45,117.64Z" transform="translate(-104.6 -48.6)"/><polygon class="cls-3" points="86.92 56.52 87.09 56.74 86.67 54.9 86.92 56.52"/><path class="cls-3" d="M191.54,93.42c-.72,1.1.11,4.24-.15,6.32l-.16.35.57.94A72.87,72.87,0,0,1,191.54,93.42Z" transform="translate(-104.6 -48.6)"/><path class="cls-3" d="M193.09,87.18c-.28.38-.24-1.35-.09,1.45,0-.14.05-.18.07-.26C193.07,88.12,193.07,87.77,193.09,87.18Z" transform="translate(-104.6 -48.6)"/><path class="cls-3" d="M193.07,88.37c0,1.23.24-.81,0,0Z" transform="translate(-104.6 -48.6)"/><path class="cls-3" d="M192.92,82.68l.25,1.62c.16-.34.2-1.78.32-1.24C193.36,81.39,193.19,81.73,192.92,82.68Z" transform="translate(-104.6 -48.6)"/><path class="cls-3" d="M192.4,81.14l.11.84C192.58,81.83,192.6,81.61,192.4,81.14Z" transform="translate(-104.6 -48.6)"/><path class="cls-3" d="M192.73,83.76,192.51,82c-.12.23-.35.26.08.82C192.37,82.65,192.58,83,192.73,83.76Z" transform="translate(-104.6 -48.6)"/><path class="cls-3" d="M192.62,84.77c-.16.91-.26,2.09-.51.46C192.21,88.34,192.71,87.88,192.62,84.77Z" transform="translate(-104.6 -48.6)"/><path class="cls-3" d="M190.8,92.82,190.59,94l.24,1C190.71,94.56,191,92.74,190.8,92.82Z" transform="translate(-104.6 -48.6)"/><path class="cls-3" d="M193.31,72.57c-.16-.1-.41.54-.6.66l.17,1.2C193,73.82,193.08,72.65,193.31,72.57Z" transform="translate(-104.6 -48.6)"/><path class="cls-3" d="M192.71,73.23l-.26-1.79C192.41,73,192.54,73.33,192.71,73.23Z" transform="translate(-104.6 -48.6)"/><polygon class="cls-3" points="87.02 32.24 87.56 35.19 87.01 31.68 87.02 32.24"/><polygon class="cls-3" points="88.74 17.11 89.09 18.13 88.56 16.32 88.74 17.11"/><path class="cls-3" d="M193.29,61.23c.27.64.52-.84.68-.17,0-1-.15-1.78-.2-2.38A21.59,21.59,0,0,1,193.29,61.23Z" transform="translate(-104.6 -48.6)"/><path class="cls-3" d="M193.72,57.92c0,.08,0,.4.05.76C193.79,58.35,193.83,58.05,193.72,57.92Z" transform="translate(-104.6 -48.6)"/><path class="cls-3" d="M192.53,68.38A2.5,2.5,0,0,0,193,67l-.43.7Z" transform="translate(-104.6 -48.6)"/><path class="cls-3" d="M192.52,67.7v0l0-1.52Z" transform="translate(-104.6 -48.6)"/><path class="cls-3" d="M192.53,68.56v-.18C192.48,68.45,192.47,68.49,192.53,68.56Z" transform="translate(-104.6 -48.6)"/><path class="cls-3" d="M192,76.14c-.23-1-.49-3.25-.85-1.13C191.44,75.77,191.65,74.55,192,76.14Z" transform="translate(-104.6 -48.6)"/><path class="cls-3" d="M192,69.43l-.1,1.91c.11,0,.28-.38.4.14Z" transform="translate(-104.6 -48.6)"/><polygon class="cls-3" points="87.26 19.89 87.39 20.83 87.43 20.12 87.26 19.89"/><path class="cls-3" d="M192.82,59.69a3.62,3.62,0,0,1,.28-1.93,5.31,5.31,0,0,0-.69,2.35C192.53,60.25,192.73,60.65,192.82,59.69Z" transform="translate(-104.6 -48.6)"/><path class="cls-3" d="M192.58,63.41l0-.18C192.51,63.34,192.5,63.43,192.58,63.41Z" transform="translate(-104.6 -48.6)"/><path class="cls-3" d="M197.43,58.91l0-.15-.08,0Z" transform="translate(-104.6 -48.6)"/><path class="cls-3" d="M192.32,60.26a3.08,3.08,0,0,0,.09,1.61,11.49,11.49,0,0,1,0-1.76C192.36,60,192.32,60,192.32,60.26Z" transform="translate(-104.6 -48.6)"/><path class="cls-3" d="M194.15,57.36a.74.74,0,0,0-.49,0C193.86,57.35,194.14,57.46,194.15,57.36Z" transform="translate(-104.6 -48.6)"/><path class="cls-3" d="M192.67,63l0,.13C192.78,62.81,192.74,62.84,192.67,63Z" transform="translate(-104.6 -48.6)"/><path class="cls-3" d="M192.67,63a8.17,8.17,0,0,0-.26-1.08c0,.5.08,1,.14,1.36A1.81,1.81,0,0,1,192.67,63Z" transform="translate(-104.6 -48.6)"/><path class="cls-3" d="M201.44,59.32c-.19.07-.71-.24-1.3-.78a12.83,12.83,0,0,1-1.77-2.07c-.78-.51-1.15-.25-1.23.25a5.08,5.08,0,0,0,.25,2c.17-.07.24-.26,1.65,1-.14-.31-.72-1.19-1.1-1.78s-.63-1,0-.64a5,5,0,0,1,1.38,1.51,7.53,7.53,0,0,0,.5,1.06c-.29-1.1,2.57,1.94,2.79,1.08l-1.6-1.52C201.11,59.36,201.75,59.85,201.44,59.32Z" transform="translate(-104.6 -48.6)"/><path class="cls-3" d="M195.23,57a1.69,1.69,0,0,0-.36-.1,2.22,2.22,0,0,1,.51.44,6,6,0,0,1,.63.88c.88.49,1.16.62,1.3.57A7.93,7.93,0,0,0,195.06,57,1.11,1.11,0,0,1,195.23,57Z" transform="translate(-104.6 -48.6)"/><path class="cls-3" d="M193.54,57.09a1.07,1.07,0,0,1,.33-.74c.15-.21.28-.4-.15-.55-.75.23-.86.59-.92.77a4.44,4.44,0,0,1-.14.73c.23-.44.42-.57.48-.59s0,.06,0,.17-.11.46.38.18a2.51,2.51,0,0,0-.4.7,1.08,1.08,0,0,1,.56-.43h0c-.07,0-.11,0,0,0l0,0a.41.41,0,0,1-.05-.18c.4-.14.1.06.05.18s0,0,0,.06h0a1.3,1.3,0,0,1,1.25-.43A1.17,1.17,0,0,0,193.54,57.09Z" transform="translate(-104.6 -48.6)"/><path class="cls-3" d="M190.22,73.05c0-.12.07-.11.1-.12C190.27,72.69,190.23,72.6,190.22,73.05Z" transform="translate(-104.6 -48.6)"/><path class="cls-3" d="M190.49,71.54a3.18,3.18,0,0,1,.18,1.36c-.13.75-.21,0-.35,0,.12.52.31,1.84.52.19l-.06-.26a9.11,9.11,0,0,1,.75-3.12A4.9,4.9,0,0,0,190.49,71.54Z" transform="translate(-104.6 -48.6)"/><path class="cls-3" d="M191.34,63c-.07-1-.16-2-.13-3q-.26.72-.45,1.47l.22-.07C190.89,63.11,191.17,62.75,191.34,63Z" transform="translate(-104.6 -48.6)"/><path class="cls-3" d="M197.48,59.28l-.57.06c.48.19,1.05.53,1.58.8Z" transform="translate(-104.6 -48.6)"/><path class="cls-3" d="M200,62.17l-.4.14c.28.21.56.41.83.63Z" transform="translate(-104.6 -48.6)"/><path class="cls-3" d="M310.1,97.61l1.53-.18C310.91,97.49,310.44,97.55,310.1,97.61Z" transform="translate(-104.6 -48.6)"/><path class="cls-3" d="M302,98.14l-.14.21C302.18,98.21,302.29,98.12,302,98.14Z" transform="translate(-104.6 -48.6)"/><path class="cls-3" d="M241.93,77c-.15,1.32-.56,2.78-.13,2.58l.38-.44A9.83,9.83,0,0,1,241.93,77Z" transform="translate(-104.6 -48.6)"/><path class="cls-3" d="M275.33,88.91l.23-.34-.19-1Z" transform="translate(-104.6 -48.6)"/><path class="cls-3" d="M276.84,90.25l-.71,1.61A12.69,12.69,0,0,0,276.84,90.25Z" transform="translate(-104.6 -48.6)"/><path class="cls-3" d="M301.15,120.77a1.69,1.69,0,0,0,.57-.06C301.55,120.54,301.39,120.69,301.15,120.77Z" transform="translate(-104.6 -48.6)"/><path class="cls-3" d="M222.88,81.65l.59-1.16.35-.65c.22-.4.41-.78.57-1.13-.38.57-.76,1.06-1,1.48A5.29,5.29,0,0,0,223,81,1.58,1.58,0,0,0,222.88,81.65Z" transform="translate(-104.6 -48.6)"/><path class="cls-3" d="M306.36,102.41c.3-.11.37-.2.39-.3C306.49,102.2,306.28,102.31,306.36,102.41Z" transform="translate(-104.6 -48.6)"/><path class="cls-3" d="M225.67,75.75c-.12.17-.22.33-.33.5a25.85,25.85,0,0,1-1,2.46A7.54,7.54,0,0,0,225.67,75.75Z" transform="translate(-104.6 -48.6)"/><path class="cls-3" d="M297.64,183.22c0,.09,0,.2.05.29S297.71,183.39,297.64,183.22Z" transform="translate(-104.6 -48.6)"/><path class="cls-3" d="M287.69,187c.31.21.8.57,1.26.91A9.37,9.37,0,0,0,287.69,187Z" transform="translate(-104.6 -48.6)"/><path class="cls-3" d="M208.68,75.07c-.44-.69-.11-.09,0,0Z" transform="translate(-104.6 -48.6)"/><path class="cls-3" d="M208.1,70.74c.13.12.26.2.35.17A.55.55,0,0,1,208.1,70.74Z" transform="translate(-104.6 -48.6)"/><path class="cls-3" d="M226.88,67.08l0-.06C226.72,67.2,226.75,67.17,226.88,67.08Z" transform="translate(-104.6 -48.6)"/><path class="cls-3" d="M208.23,73.9c.11.3.25.63.41,1A8.63,8.63,0,0,0,208.23,73.9Z" transform="translate(-104.6 -48.6)"/><path class="cls-3" d="M208.14,74.15l-.32-.64C207.7,73.46,207.71,73.56,208.14,74.15Z" transform="translate(-104.6 -48.6)"/><path class="cls-3" d="M209.25,76.06c-.23-.41-.42-.81-.61-1.18.06.15.07.22,0,.19Z" transform="translate(-104.6 -48.6)"/><path class="cls-3" d="M304.06,158.38l.08.17C304.81,159.09,304.56,158.82,304.06,158.38Z" transform="translate(-104.6 -48.6)"/><path class="cls-3" d="M252.65,82.19l-.08.07.12-.05Z" transform="translate(-104.6 -48.6)"/><path class="cls-3" d="M255.14,80.39a5.23,5.23,0,0,1-2.45,1.82l1.5.58Z" transform="translate(-104.6 -48.6)"/><path class="cls-3" d="M311.49,108l2.79-2.53c-.56.88-1.19,1.73-1.75,2.47l-.4.52c-.11.16-.28.36-.3.41l-.28.43c-.29.46-.21.49.66-.07,0-.09-.1-.13,0-.29a2.47,2.47,0,0,1,.25-.54,12.39,12.39,0,0,1,1-1.47c.88-1.13,2.1-2.51,3.33-3.9,2.32-2.72,4.55-5.4,3.26-4.92l.51-.48.25-.24.12-.12-.1,0-.85-.13c.32,0,.55,0,.77,0l.36,0h.3l-.08.09.1-.1s0,0-.05,0l-.15,0-.29,0c-.2,0-.39,0-.58,0a8.59,8.59,0,0,0-1.14,0,17.88,17.88,0,0,0-2.17.37,20,20,0,0,1-5.37.66c-1.68-.06-3-.17-1.57-.4l-2.22.27-1.07.13c-.33,0-.74.11-.92.15-.81,0-.63-.21.17-.25-1.4.14-2.81.29-4.21.48l0,0c-.58.26-1.9.74-2.54,1-1.09-.06.51-.21.22-.34-.76.21-1.52.39-2.27.62-1-.21.88-.83,2.5-1-2.35-1.06-1.89.54-6.68.51.72-.17,1.44-.37,2.17-.52-1.54-.54-3.22,0-5.79,0,.65.11,5.18.29,2.72,1.07a8.43,8.43,0,0,0-3,.68c-.1-.48-1.39-.08-3,.3l0-.65c-1.74.59-1.52.88-2.49,1.41-2,.43-2.51.07-3.08-.22-3.17.76,2.37.17-1.3,1.31-.67.13-1.27.27-1.86.44-.29.08-.57.18-.86.27l-.42.15-.14.06-.08,0c-.43.22-.93.56-1.84,1.06-.35,0-.19-.15,0-.31s.38-.32.34-.4c-.33.29-.72.61-1.19,1-.17,0,.1-.21.23-.34a4.89,4.89,0,0,0-.76.59c-.33.29-.61.59-.52-.08-.44.25.17-.88.69-1.77a9.66,9.66,0,0,0,.66-1.25c0-.09.07-.18.1-.27l0-.14,0-.21a5.63,5.63,0,0,0,.11-1.07c.36-.59.29.42.58.29a39.12,39.12,0,0,0,.63-6.29l1.08-2.4c-1,1.72-.87-.78-.8-3-.39.59-.73,1.1-.92,1.45l.51-3.37c.2-.37.33,0,.45.62V87c.52-1.12.73-.42.86.51-.22.37-.45.74-.68,1.09.16.91.38,1.78.79,1.7a5.36,5.36,0,0,1,.11-1.12c.05.24.11.4.19.31s.05-.47,0-1l.88-.57-.23-.26,1.5-4.22c0-.8,0-1.57,0-2.37s-.05-1.54,0-2.66a54.75,54.75,0,0,1,.42-6c.07-.15-.15,0-.25,0l.38-.23a.29.29,0,0,0,.14-.08c.39.13,1-1.07,1.66-1.81l0,0a12.21,12.21,0,0,0-1,3.92,34.78,34.78,0,0,1-.83,5c.49-1.88.72-1.54.7-1,.33-2.31.58-4.46.79-6.35.42-.3.64-1.07,1-2.24,0,0-.16,0-.27,0l-.35.07-.73.14c.12,1-5.29,2.2-7.61,3.45-.11-.14-.05-.34.46-.64a12.41,12.41,0,0,1,3-1.17,5.92,5.92,0,0,0-2.22.58,11.72,11.72,0,0,0-1.7,1c-.55.35-.8.63-1.22.88a3.82,3.82,0,0,1-1.54.53c.53-.22.84-.28,1-.53-1.14.75-4.21,1.87-3.63,1.29l.52-.24A57.16,57.16,0,0,0,261,78.08c-2.15,1.25-3.84,2.47-3.88,3a3.22,3.22,0,0,1,.05-1.4c-1.51,1.93-3,3.86-4.4,5.82.14-.93-2.7-1.28-.22-3.22a15.17,15.17,0,0,0-1.42.7,9.39,9.39,0,0,0-.88.55l-.25.17-.12.09-.06,0-.25.24c.15,0,.41.13.7.26s.43.34.14.55c-.94.09-1.1.06-1.37.11a2.13,2.13,0,0,1-1,0c.15,0,0,.45-.28,1a4.72,4.72,0,0,1-1.42,1.52c.28-.37.89-1.86,1.22-2.2l-.31.35-.16.18c-.06.06-.11.13-.12.1-.28,0-.54-.26-.84-.69.23.49.89-1,1.18-1.56-.1.18-.11-.2-.12-.66l0-.73a7,7,0,0,0-.14-1.11l0,.78,0,.4-.05.22v-.21l0-.35a5.61,5.61,0,0,0-.09-.63,6.53,6.53,0,0,0-.27-1.06,7.89,7.89,0,0,0-.73-1.57,9.68,9.68,0,0,1-1.41-3.86c.3.43,1.63,1,1.38-1.13-.74-.86-3.53-3.55-4.93-6.75l.13-.74-1.17-2.45a29.92,29.92,0,0,1,2.9,3.47,34.53,34.53,0,0,1,2.79,4.39c-.1-1.57.31-.51-.28-2.77.09-.88.77,1.12.93,1.8-.33-1.79-.75-3.57-1.19-5.35-.55.41-1.91-3.77-2.4-3.38.88,1.77,1.66,3.58,2.42,5.42-.6.39-2.69-2.76-3.89-6.32-.09-1,1.37.27,1.55.13a12,12,0,0,1-1-1.83,13.39,13.39,0,0,1-.77-1.95l.3.49.24.34.47.7a4.8,4.8,0,0,0-.25-.73c-.11-.25-.19-.38-.37-.75-.33-.64-.68-1.2-1-1.74a15.16,15.16,0,0,1-1.93-4.15c-.27-.62-.64-1.89-1-3a2.33,2.33,0,0,0-1,1.14c.52-.16.77.26.76,1.16a13.15,13.15,0,0,1-.15,2.21,9.26,9.26,0,0,1-.33,1.54,4.79,4.79,0,0,1-.21.81,13.29,13.29,0,0,0-1.16.66c-.61.42-1.48,1.07-1.89,1.33-.61.35-.63-.26-.44-1.1s.55-1.78-.13-1.36a7.37,7.37,0,0,1-.65,1.66c-.42.43-.46.25-.58.23s-.29.06-.85.91c.37.67-2.34,3.37-.06,1.12-.94,1.73-1.27,1.66-2.45,3.64.75-.39.22,2.52-.5,4.31-.09-.19-.5.09-.69.22-1.9,3.48-3.07,5.29-4.57,8.67-.3.25-1.18,1.81-1.15,1a7.77,7.77,0,0,1-.51,2.14c-.35.48-.42.44-.44.37a2.54,2.54,0,0,1,.21-.73c.23-.66.49-1.39-.17-.75.08.07.08.29,0,.61s-.16.76-.22,1l-.56,2.3c.25.19.6-.61.9-1.53s.59-2.12.79-2.9c.39.16.5,1,.4,2.22a36.64,36.64,0,0,1-1.53,6.19c-1.43,4.2-.82.59-1,1.47s-.59,1.48-.83,2.17l-.33,1-.15.49c0,.11,0,.07-.07.09l-.07,0c-.53-.93-.9-1.12-1.42-1.94a23,23,0,0,1-2-5.05c-.37-1.55-.16-1.72.09-1.77s.58.09.61-.3a14.83,14.83,0,0,1,1.23,3.19c.29,1.07.59,2.2.93,3.1l-.77-2.77a8.29,8.29,0,0,1,1.28,3,34.17,34.17,0,0,0-2.1-6.16c-1-2.44-2.42-5.3-3.3-7.36-.53-.62-1.37-1.71-1.24-1,.26.39.5.79.75,1.19.23,1.33-1.8-2-1.12-.37a31.77,31.77,0,0,1-3.86-5.34l.24-.75a5,5,0,0,0,1.18,2.16c-.8-.77-1.5-3.85-2.88-4.36.25.58.48,1.17.7,1.75-1.3-1.38-3.17-2.83-4.44-4.75.17,1.19.4.37.81,2.1-.08-.83.82.33,1.6,1.45s1.48,2.15,1.23.94c.26,1.85,1.34,2.6,1.88,4.83.13-.16-.07-.86.84.83a2,2,0,0,1,.36.27l0,.12,0-.1c.07.06.08.06,0,0a3.18,3.18,0,0,1-.24-1c.91.57,2.4,3.27,3.09,4.09.44,1.07-.42-.32-.33.34l1,1.22c-.31.34.65,3.06-.75.76l.52,1.09.26.55c.15.3.29.63.42,1,.38,1.24.95,2.65,1.48,4.15s1.09,2.89,1.52,3.8a17.35,17.35,0,0,0,1.18,2.73c.3.54.42.7.09.3l1.09,2.62.15-.27.15-.45.31-.89.61-1.76,0,.19c1.18-2.92,2.3-6.29,3.42-9.34.28-.78.57-1.53.88-2.28l.32-.8.33-.71a18.64,18.64,0,0,1,1.58-2.8,23.28,23.28,0,0,1,1.86-4.33l.53-.2c.58-1.54,2.57-4.14,2.55-4.94.89-.5,1.9-2.15,3-3.92.55-.87,1.09-1.79,1.63-2.61l.39-.57.06-.1a.36.36,0,0,1,.15-.15l-.24-.53a12.7,12.7,0,0,0,.89-1.32l.38.41.18-.7a3.86,3.86,0,0,1,.8,1.84,1.88,1.88,0,0,0,.09.33l.17.56.35,1.15c.25.77.49,1.56.77,2.34a3.28,3.28,0,0,1-.57-1.56,21.77,21.77,0,0,0,1.78,5.84,15.48,15.48,0,0,1,1.49,5.64,5.52,5.52,0,0,1,.41,2.13q0-.12-.06-.21l.05.36c0,.4,0,.82,0,1.26A6.85,6.85,0,0,0,242,75.9c.12.68.36,1.7.6,2.71l-.42.5,0,.23c0,1,.33.77.63.19a10.68,10.68,0,0,0,.44,1.32c-.35.46-.19,1.12-.09,1.82a7,7,0,0,1-.1,3.29c.29.6.44,4,.71,5.79.07,0,.24-.14.37-.23l.38-.29.67-.57a5.08,5.08,0,0,0,.9-1c0,.15.3,0-.35.42a20.73,20.73,0,0,0,3.85-2.39,5.24,5.24,0,0,0,.71.29c.49-.47,1-.92,1.38-1.31l.89-1c1.53-.47,2.19-.61,1.1.58,2.84-2.5,2.46-1.75,4.86-3.92l.06.42c1-.56,2.32-1.89,3.07-1.91,1.3-.25,4.06-1.67,7.35-3.08.83-.34,1.67-.73,2.55-1.05l1.31-.5c.37-.14.55-.19.83-.28a7.65,7.65,0,0,1,2.44-.46,1.62,1.62,0,0,1,.41-.55.32.32,0,0,1,.17-.09h.09s.06,0,0,.07c-.15.35-.37.83-.54,1.24s-.13.51.19.35c-.39.44-.64.87-.83.6a3,3,0,0,1-.13.87l-.13.4a3.69,3.69,0,0,0-.16.5,8.71,8.71,0,0,0-.41,3.24c-.36.3-.23-.78-.47-.49a2.82,2.82,0,0,1-.25,1.37c-.24.29-.11-.52-.11-1.06-.75,3.29,0,3.83.7,4.26A5.49,5.49,0,0,0,274,90c-.4.52-.92,1.41-.47-.65-.33,1.14-2.24,6.89-1.67,7.18a5.33,5.33,0,0,0-.51,1.9c-.42,1.35-.64,2.08-.87,2.81-.29.93-.56,1.87-1,3.55l.41-1a2.4,2.4,0,0,1-.18,1.9c-.29.82-.76,1.94-1.09,3.15l-.09,0-.24.61-.11.26c0,.09-.06.17,0,.17a18.22,18.22,0,0,0,3.36-1.15,9.89,9.89,0,0,1,1.27-.46c.6-.18,1.43-.4,2.88-.73a3.91,3.91,0,0,1-.3-.41c.63-1.29,4.5-.79,7.09-1.85l-1,0c1.37-.74,4.41.32,5.88.12.34,0-.47.25-.89.42,3.94-.26.35-.72,3.18-1.49.59.23-.51,1,1.42.66,1,.06,5.42-2.1,8.18-1.77-.62-.19-1.24-.38.09-.74a22.76,22.76,0,0,1,3.85-.07c.69,0,1.38,0,2-.06a7.45,7.45,0,0,0,.89-.16,2.64,2.64,0,0,0,.4-.12,1.21,1.21,0,0,0,.22-.15c.14.06.18.13.18.19.8-.26,2.93-.5,4.43-1-.44.44-.32.6.16.63h.05l0,0-.07.08-.13.16a2.26,2.26,0,0,0-.23.31c-.13.2-.26.42-.39.65-.52.9-1.37,2.2-2.06,1.82l-1.18,1.38-1.63,1.88,0-.2a13,13,0,0,0-3.15,4.45c-.57.48-.32,0-.34-.12a39.82,39.82,0,0,0-3.29,3.46c-.19.24-.36.47-.54.72l-.68,1a5.16,5.16,0,0,0-1.09,2.83,3.79,3.79,0,0,0-.53.53,5,5,0,0,0,.74,1.94,7.83,7.83,0,0,0,1.12,1.33l.71.7.54.56a36.32,36.32,0,0,0,5.23,4.56c-.07,0-.2,0-.52-.16a11.25,11.25,0,0,1,1.88,1.55,4,4,0,0,1,.84,1.14,6.26,6.26,0,0,0-1.67.48,1.08,1.08,0,0,0-.41.41,1.4,1.4,0,0,0-.14.3.58.58,0,0,1-.11.2c-.05.08-.09.16-.13.24-1,.58-2,1.18-2.95,1.79,4.08-1.68-.28,1,1.5.51-1.53.79-4.27,1.39-2.4.39l.34-.06c.3-1.21-5.07,2.09-5.24,1.51l-1.44.77-1.91,1L290,141l-1,.57-.5.28-.06,0,0,0,.07.12.15.24q1.21,1.91,2.42,3.81l1.89,2.91c2.32,3.54,4.72,6.94,7.26,10.13l0-1.19c.58.75,1.16,1.49,1.75,2.23.34.68.19,1.14-1.07-.45a5.44,5.44,0,0,0,2.59,2.33c2.34,3.22-1.65-.63-.88.31l1.11,1.23-.17-.34a10.89,10.89,0,0,1,3,2.55c.91,1.25.19.9.57,1.37,0,0,.08.2.62.7l2.38,2.67-.55-1.44c1.28,1,2.29,2.46,1.62.82a16.74,16.74,0,0,0,3,3.89l1.51-2.6a39.17,39.17,0,0,1-8.64-3.87,42.28,42.28,0,0,1-6.48-3c.57.4.65,1.15-1.45.09.67-.44-.26-1-1.59-1.64-.69-.29-1.43-.62-2.2-.9-1-.42-1.93-.67-2.69-1,1.28.55-1.14.08-3.1.18a15,15,0,0,0-2.39.17c-.11,0-.17,0-.14.12a.21.21,0,0,0,.1.13c.06,0,.1,0,.23.05a5.66,5.66,0,0,0,.64.15c-.22,0-.47-.05-.55,0a.51.51,0,0,1-.16.12c0,.34-.17.13-.34,0s-.34-.24-.29.52c.57,1.77,1.06,3.44,1.51,5.2.19.74.38,1.5.58,2.26l.48,1.94a68.54,68.54,0,0,0,2.35,8.09c.2,0,.14-1,.79.11l.19,3.15c.48,1,1.3.63,1.48,2.78,0-.33.08-.81.41-.12l.54,1.73.38,1.18c.25.7.5,1.37.8,2,.58,1.35,1.3,2.81,2.1,4.35l.16.32a1.45,1.45,0,0,1-.23-.15l-.5-.36-1.06-.78c-.72-.53-1.47-1.11-2.21-1.72s-1.46-1.25-2.07-1.85l-.43-.44-.2-.21-.39-.37c-.56-.52-1.11-1-1.64-1.59,1,1.2.18.61-.76-.08.56.52-.28.33-.3.61l-3.4-3.38c-1.08,0-4.09-3-4.86-2.81l1.27.82c-2.05-.61,1.23,3,.42,3.59,2.3.67,4,4.55,7.62,5.78.36.39.14.32-.14.21s-.49-.16-.38.06a1.88,1.88,0,0,1,.39.12l.5.24a10.12,10.12,0,0,1,1,.62,29.41,29.41,0,0,1,2.76,2.16l-.25-.06c2.71,2,4.78,3.59,7,5.35l3.46,2.78,1.94,1.57,1.05.85.28.22a.44.44,0,0,0,.16.09l.3.14c-.5-1.13-1.11-2.52-1.81-4.09-.25-.16-.51-.34-.79-.54a11.59,11.59,0,0,1-.89-2.65c-1.3-1.9-.64-.47,0,.86s1.21,2.64-.22.57c.63.18-1.14-3.5-2.63-6.79-.79-1.69-1.42-3.24-1.91-4.56a7.16,7.16,0,0,1-.6-2.77,4.16,4.16,0,0,0-.54-1.12c-.08-.05-.11,0-.15.15,0,.26-.15.37-.52-.61l.07-.64-.55-.37c-.45-1.34-.34-2.14-.12-2.27a11.81,11.81,0,0,0,.55,1.22c-.32-1.82-1.87-4.78-1.95-5.42l.5,2c-1.06-2.6-2-5.56-2.91-8.52q-.33-1.12-.66-2.22c-.11-.37-.22-.74-.32-1.1l-.19-.57c-.22-.67-.48-1.36-.82-2.2,0-.06-.09-.18-.05-.19l.14,0-.51-.25a3.23,3.23,0,0,1,1.34-.14,3.65,3.65,0,0,1,1,.22l.94.32c.23.09,1.12.33,2.17.68h-.17a9.48,9.48,0,0,1,3.26,1c-1.17-.28,1.78,1.41.26,1,4.32,1.71,2.19.73,5.34,1.46l.46.67a9.85,9.85,0,0,1,3.47,1.1c-1.94-.59,1.17,1.19-1.05.58a17.12,17.12,0,0,0,7,2.74l6.26,1.46-4.64-4.25a4.67,4.67,0,0,1-1.47-2.12c-1.65-.66.33,1.37,1.27,2.32l4,4-5.32-1.67c-.56-.18-.86-.28-.46-.22-.44-.29-.08-.35.6-.28l3.64.39-2.79-1.85a12.52,12.52,0,0,1-2.25-2c-1.09-1.18-.95-2.86-3.65-5.8.27.3.35.26.61.56-.81-1.28-2.23-1.95-3.11-3.62-1.15-.37-1.51-1.84-2.31-1.55.83.9,1.68,1.79,2.53,2.68-1.52-1.44-3.51-2.34-5.33-5.31a10.75,10.75,0,0,1,1.64,1.24c-.46-.92-1.35-1.4-1.81-2.37.8-.25,2.94,3.38,4.85,4.68-.44-1-3.14-2.86-1.76-2.55-1.87-.55-2.38-3.13-4.69-4.76l.49-.15a11,11,0,0,1-1.5-1.5l1.35.76c-1.75-1.42-2.16-3.65-3.6-5.18,2.57,3.55.11,1.14.92,2.84-1.86-2-2.05-2.83-2.25-3.75a7.28,7.28,0,0,0-.49-1.6l-.12-.26-.07-.13v0a1.05,1.05,0,0,0-.05-.19,1.93,1.93,0,0,0-.28-.43.5.5,0,0,1,.1.43c0,.15-.08.32-.33.15a1.93,1.93,0,0,1-.15-.61.33.33,0,0,1,0-.21.18.18,0,0,1,.05-.07h.19c.38-.28.28-.36,0-.36s-.78.08-.62-.19c.59,0,.65-.1.76-.34a3,3,0,0,1,.2-.42,1.16,1.16,0,0,1,.32-.32,5.21,5.21,0,0,1,.49-.37l.24.42c4.18-1.82.6-1.48,4.47-3l-1.28,1.36,1.85-1.08-.16.68a14.9,14.9,0,0,1,4.82-2.31c-.21,0-.25-.09-.27-.19a.33.33,0,0,1,.05-.18,2.27,2.27,0,0,1,.27-.27,10.34,10.34,0,0,1,2.66-1.4c2.21-.52-.64.72,3.42-.86a3.81,3.81,0,0,1-1.07.82,9.06,9.06,0,0,1-2.5.77c-.05.19-.73.61-.84.82,1.28-.34,2.9-.92,4.34-1.47l3.54-1.39c-.69.23-1.52.51-2,.62l1.76-.88c-1.33-1-2.76-2-4-2.93-.51-.69.25-.21,1.1.34-1.12-.91-2.09-1.47-3.57-2.7.76.13,1-.2,3.62,1.86l-2.9-2.25-1.39-1.07-.34-.26-.22-.17-.42-.29c-.09-.3-1.24-1.71-.76-1.47a18.5,18.5,0,0,0-3.13-2.41c-.61-.41-1.23-.84-1.83-1.3-.25-.17-.42-.28-.48-.49a.46.46,0,0,1-.37-.26.77.77,0,0,1,.36-.59l.26-.2.13-.09.37-.37a21.28,21.28,0,0,0,2.81-3.46l1.78-.92c1.6-2-2.35,1.29.32-2.09,1.87-2.41,1.2-.44,2.06-1.1.38-.68.87-1.63,1.55-2.63a25.67,25.67,0,0,1,3.85-4.14C313.3,106.09,312.39,107,311.49,108ZM292.28,99.7c.59-.2,1.78-.72,2.28-.51C293.94,99.85,293.36,99.68,292.28,99.7Zm-14.9-15.12a3.93,3.93,0,0,1-.58,1.89A8.72,8.72,0,0,1,277.38,84.58Zm-63.71-.12.06.07C214.45,86.94,214.2,86.06,213.67,84.46Zm-1.6-4.14c-.18-.22-.23-.18-.24,0a.67.67,0,0,1,.16.17l.09.13.12.23c.21.4.41.9.63,1.44a3.07,3.07,0,0,0-.18-.76c-.06-.17-.14-.36-.24-.58l-.18-.34Zm95.42,87-.28-.5C308.16,167.69,307.83,167.51,307.49,167.34Z" transform="translate(-104.6 -48.6)"/><path class="cls-3" d="M276.67,90.08a.46.46,0,0,1-.32.19C276.37,90.53,276.46,90.56,276.67,90.08Z" transform="translate(-104.6 -48.6)"/><path class="cls-3" d="M301,120.75a0,0,0,0,0,0,0h.11Z" transform="translate(-104.6 -48.6)"/><path class="cls-3" d="M231.49,56.11A5.51,5.51,0,0,1,232.66,55C232.63,54.85,232.32,55,231.49,56.11Z" transform="translate(-104.6 -48.6)"/><path class="cls-3" d="M204,68l1.1,1.4a6.07,6.07,0,0,1-.77-1.41C204.25,68.1,204.31,68.47,204,68Z" transform="translate(-104.6 -48.6)"/><path class="cls-3" d="M195.76,54.72a4.64,4.64,0,0,0-.81-.16l0,.24c.53.09,1,.25,1.16.28S196.3,55,195.76,54.72Z" transform="translate(-104.6 -48.6)"/><path class="cls-3" d="M204.33,65.75c.25-.36-.54-1.19-1.37-2.15l.14.18C202.42,63.83,203.39,64.78,204.33,65.75Z" transform="translate(-104.6 -48.6)"/><path class="cls-3" d="M202.77,63.38c-.25-.3-.51-.6-.73-.91C201.77,62.49,202.3,62.87,202.77,63.38Z" transform="translate(-104.6 -48.6)"/><path class="cls-3" d="M210.26,77.28c-.18-.57-.64-.09-.65-.46C208.87,76.47,212,80,210.26,77.28Z" transform="translate(-104.6 -48.6)"/><path class="cls-3" d="M204.8,64.13l-.13.66.74.34C205.21,64.79,205,64.46,204.8,64.13Z" transform="translate(-104.6 -48.6)"/><path class="cls-3" d="M210.06,72.75c-.3-.62-.62-1.21-.93-1.82-.06.07-.24-.13-.43-.38A11.55,11.55,0,0,0,210.06,72.75Z" transform="translate(-104.6 -48.6)"/><path class="cls-3" d="M208.7,70.55a8,8,0,0,0-1-1.34C207.94,69.51,208.37,70.14,208.7,70.55Z" transform="translate(-104.6 -48.6)"/><polygon class="cls-3" points="101.96 17.71 102.22 18.27 103 19.48 101.96 17.71"/><path class="cls-3" d="M219.56,84.81l.83-2.48c0-.39-.33.07-.6.94C219.65,83.94,219.34,84.89,219.56,84.81Z" transform="translate(-104.6 -48.6)"/><path class="cls-3" d="M217.09,84.38a14.82,14.82,0,0,1,.22,1.61l.07-1.43A1.65,1.65,0,0,1,217.09,84.38Z" transform="translate(-104.6 -48.6)"/><path class="cls-3" d="M218.81,82.6c0-.23.15-.94.19-1.32s0-.48-.29.35a9.32,9.32,0,0,1-.15,1C218.5,83,218.51,83.17,218.81,82.6Z" transform="translate(-104.6 -48.6)"/><path class="cls-3" d="M235,54.37l-.38.48.33,1.24A16.79,16.79,0,0,1,235,54.37Z" transform="translate(-104.6 -48.6)"/><path class="cls-3" d="M247.36,78.23c-.13-2.75-.7-.55-.79-3-.34-.59.09,2-.23,1.41C246.84,78.19,246.8,79.07,247.36,78.23Z" transform="translate(-104.6 -48.6)"/><path class="cls-3" d="M246.34,76.61c-.08-.25-.17-.52-.29-.8A5.91,5.91,0,0,0,246.34,76.61Z" transform="translate(-104.6 -48.6)"/><polygon class="cls-3" points="178.44 134.18 177.2 132.98 177.88 133.92 178.44 134.18"/><path class="cls-3" d="M280,181.42l.07-.76-1.17-.15A4,4,0,0,1,280,181.42Z" transform="translate(-104.6 -48.6)"/><path class="cls-3" d="M287.28,99.35l-.09.18a3.21,3.21,0,0,0,1.5-.11Z" transform="translate(-104.6 -48.6)"/><path class="cls-3" d="M314.17,96.86h-.67a4.06,4.06,0,0,1,.59.58A4,4,0,0,0,314.17,96.86Z" transform="translate(-104.6 -48.6)"/><path class="cls-3" d="M308.38,113.38c.55-.58,1.07-1.35,1.62-1.93C308.93,112.8,307.69,113.05,308.38,113.38Z" transform="translate(-104.6 -48.6)"/></svg>