<svg xmlns="http://www.w3.org/2000/svg" width="19.991" height="19.991" viewBox="0 0 19.991 19.991"><defs><style>.a{fill:#3b3f42;}</style></defs><g transform="translate(-2.005 -2.007)"><path class="a" d="M2.6,6.09l9-4a1,1,0,0,1,.8,0l9,4a1,1,0,0,1,0,1.82l-9,4a1,1,0,0,1-.8,0l-9-4a1,1,0,0,1,0-1.82Z"/><path class="a" d="M3.91,10.5l7.68,3.41a1,1,0,0,0,.82,0l7.68-3.41,1.32.59a1,1,0,0,1,0,1.82l-9,4a1,1,0,0,1-.82,0l-9-4a1,1,0,0,1,0-1.82l1.32-.59Zm0,5,7.68,3.41a1,1,0,0,0,.82,0l7.68-3.41,1.32.59a1,1,0,0,1,0,1.82l-9,4a1,1,0,0,1-.82,0l-9-4a1,1,0,0,1,0-1.82l1.32-.59Z"/></g></svg>