<svg id="Layer_1" data-name="Layer 1" xmlns="http://www.w3.org/2000/svg" viewBox="0 0 189.01 180.92"><defs><style>.cls-1{fill:#ffc626;}.cls-2{fill:#fff;}</style></defs><title>stars</title><polygon class="cls-1" points="74.42 101.12 106.74 118.79 74.42 136.47 56.74 168.79 39.06 136.47 6.74 118.79 39.06 101.12 56.74 68.79 74.42 101.12"/><polygon class="cls-1" points="92.96 20.52 113.47 31.74 92.96 42.96 81.74 63.48 70.52 42.96 50 31.74 70.52 20.52 81.74 0 92.96 20.52"/><polygon class="cls-1" points="167.46 99.34 189.01 111.13 167.46 122.91 155.67 144.46 143.89 122.91 122.34 111.13 143.89 99.34 155.67 77.79 167.46 99.34"/><polygon class="cls-2" points="152.09 35.22 161.21 40.21 152.09 45.2 147.1 54.32 142.1 45.2 132.98 40.21 142.1 35.22 147.1 26.09 152.09 35.22"/><polygon class="cls-2" points="139.68 161.81 148.8 166.8 139.68 171.79 134.68 180.92 129.69 171.79 120.57 166.8 129.69 161.81 134.68 152.68 139.68 161.81"/><polygon class="cls-2" points="19.11 46.18 28.23 51.17 19.11 56.16 14.12 65.29 9.13 56.16 0 51.17 9.13 46.18 14.12 37.06 19.11 46.18"/></svg>